<svg width="20" height="13" viewBox="0 0 20 13" fill="none" xmlns="http://www.w3.org/2000/svg">
<path d="M19.9778 9.69598C19.8222 8.62835 19.1111 3.8833 19.0667 3.71723C18.8889 2.60214 18.2 1.67686 17.2667 1.22608L17.0222 0.44315C16.9556 0.205897 16.6889 -0.00762939 16.4444 -0.00762939H15.3333C15.0889 -0.00762939 14.8222 0.182172 14.7556 0.44315L14.4667 1.39216C14.2444 1.53451 14.0222 1.70059 13.8444 1.89039H6.17778C6 1.70059 5.77778 1.53451 5.55556 1.39216L5.26667 0.44315C5.2 0.205897 4.93333 -0.00762939 4.68889 -0.00762939H3.57778C3.33333 -0.00762939 3.06667 0.182172 3 0.44315L2.75556 1.22608C1.82222 1.67686 1.13333 2.60214 0.955556 3.71723C0.911111 3.8833 0.177778 8.62835 0.0222222 9.69598C-2.15239e-08 9.81461 0 9.93323 0 10.0519C0 11.2856 0.955556 12.3058 2.11111 12.3058C2.91111 12.3058 3.6 11.8313 3.95556 11.1432C4.04444 10.9534 4.75556 9.60108 5.46667 8.27247H5.91111C6.17778 8.9605 6.82222 9.45873 7.55556 9.45873C8.28889 9.45873 8.93333 8.9605 9.2 8.27247H10.8C11.0667 8.9605 11.7111 9.45873 12.4444 9.45873C13.1778 9.45873 13.8222 8.9605 14.0889 8.27247H14.5333C15.2222 9.60108 15.9333 10.9534 16.0444 11.1432C16.4 11.8313 17.0889 12.3058 17.8889 12.3058C19.0444 12.3058 20 11.2856 20 10.0519C20 9.93323 20 9.81461 19.9778 9.69598ZM3.33333 2.10391C3.33333 1.96156 3.42222 1.86666 3.55556 1.86666H4.44444C4.57778 1.86666 4.66667 1.96156 4.66667 2.10391V3.19527L4 3.90703L3.33333 3.19527V2.10391ZM2 4.95094C1.86667 4.95094 1.77778 4.85604 1.77778 4.71369V3.76468C1.77778 3.62233 1.86667 3.52743 2 3.52743H3.02222L3.68889 4.23918L3.02222 4.95094H2ZM4.66667 6.37445C4.66667 6.5168 4.57778 6.6117 4.44444 6.6117H3.55556C3.42222 6.6117 3.33333 6.5168 3.33333 6.37445V5.28309L4 4.57134L4.66667 5.28309V6.37445ZM6.22222 4.71369C6.22222 4.85604 6.13333 4.95094 6 4.95094H4.97778L4.31111 4.23918L4.97778 3.52743H6C6.13333 3.52743 6.22222 3.62233 6.22222 3.76468V4.71369ZM7.55556 8.50972C7.06667 8.50972 6.66667 8.08267 6.66667 7.56071C6.66667 7.03876 7.06667 6.6117 7.55556 6.6117C8.04444 6.6117 8.44444 7.03876 8.44444 7.56071C8.44444 8.08267 8.04444 8.50972 7.55556 8.50972ZM12.4444 8.50972C11.9556 8.50972 11.5556 8.08267 11.5556 7.56071C11.5556 7.03876 11.9556 6.6117 12.4444 6.6117C12.9333 6.6117 13.3333 7.03876 13.3333 7.56071C13.3333 8.08267 12.9333 8.50972 12.4444 8.50972ZM16 1.74804C16.4222 1.74804 16.7778 2.12764 16.7778 2.57842C16.7778 3.0292 16.4222 3.4088 16 3.4088C15.5778 3.4088 15.2222 3.0292 15.2222 2.57842C15.2222 2.12764 15.5778 1.74804 16 1.74804ZM14.4444 5.06957C14.0222 5.06957 13.6667 4.68996 13.6667 4.23918C13.6667 3.7884 14.0222 3.4088 14.4444 3.4088C14.8667 3.4088 15.2222 3.7884 15.2222 4.23918C15.2222 4.68996 14.8667 5.06957 14.4444 5.06957ZM16 6.73033C15.5778 6.73033 15.2222 6.35073 15.2222 5.89995C15.2222 5.44917 15.5778 5.06957 16 5.06957C16.4222 5.06957 16.7778 5.44917 16.7778 5.89995C16.7778 6.35073 16.4222 6.73033 16 6.73033ZM17.5556 5.06957C17.1333 5.06957 16.7778 4.68996 16.7778 4.23918C16.7778 3.7884 17.1333 3.4088 17.5556 3.4088C17.9778 3.4088 18.3333 3.7884 18.3333 4.23918C18.3333 4.68996 17.9778 5.06957 17.5556 5.06957Z" fill="white"/>
</svg>
