<svg width="130" height="21" viewBox="0 0 130 21" fill="none" xmlns="http://www.w3.org/2000/svg">
<path d="M10.16 4.02C13.96 4.02 17.18 5.62 17.18 10.12C17.18 14.62 13.96 16.2 10.16 16.2C7.62 16.2 5.58 15.52 4.3 14.18V21H0.86V4.22H4.3V6.04C5.58 4.72 7.62 4.02 10.16 4.02ZM9.02 13.34C12.08 13.34 13.76 12.44 13.76 10.12C13.76 7.78 12.08 6.88 9.02 6.88C5.96 6.88 4.3 7.78 4.3 10.12C4.3 12.44 5.96 13.34 9.02 13.34ZM18.5748 -2.38419e-07H21.9948V16H18.5748V-2.38419e-07ZM31.4967 4.02C36.4167 4.02 39.2167 5.6 39.2567 10.06V16H35.8167V14.54C33.7367 15.56 31.4367 16.2 28.6567 16.2C25.3567 16.2 23.2967 15.14 23.2967 12.48C23.2967 9.42 26.6567 8.46 30.3967 8.46C32.4167 8.46 34.2767 8.78 35.8167 9.3C35.8167 7.06 32.9367 6.88 31.3367 6.88C29.7967 6.88 27.9167 7.02 25.4967 7.74L24.2767 5.24C26.6767 4.46 29.0367 4.02 31.4967 4.02ZM35.8167 12.34V11.42C34.6167 11.04 32.9967 10.7 30.8167 10.7C28.2567 10.7 26.7167 11.14 26.7167 12.34C26.7167 13.58 27.8567 13.68 29.6367 13.68C31.4967 13.68 34.0567 13.1 35.8167 12.34ZM52.1664 4.22H55.9464L47.9864 21H44.2064L46.5864 16H44.8264L38.7264 4.22H42.5264L47.5664 13.94L52.1664 4.22Z" fill="black"/>
<path d="M55.328 10.12C55.328 5.78 58.608 4.02 63.488 4.02C67.888 4.02 70.988 5.46 71.548 8.92H68.048C67.588 7.4 65.968 6.88 63.488 6.88C60.548 6.88 58.748 7.66 58.748 10.12C58.748 12.56 60.548 13.34 63.488 13.34C65.968 13.34 67.588 12.82 68.048 11.3H71.548C70.988 14.76 67.888 16.2 63.488 16.2C58.608 16.2 55.328 14.44 55.328 10.12ZM72.8522 -2.38419e-07H76.2722V16H72.8522V-2.38419e-07ZM85.7341 16.2C80.8541 16.2 77.5741 14.44 77.5741 10.12C77.5741 5.78 80.8541 4.02 85.7341 4.02C90.5941 4.02 93.8941 5.78 93.8941 10.12C93.8941 14.44 90.5941 16.2 85.7341 16.2ZM85.7341 13.34C88.8941 13.34 90.4541 12.56 90.4541 10.12C90.4541 7.66 88.8941 6.88 85.7341 6.88C82.5541 6.88 80.9941 7.66 80.9941 10.12C80.9941 12.56 82.5541 13.34 85.7341 13.34ZM108.156 4.22H111.576V16H108.156V13.94C106.476 15.26 104.156 16.2 101.296 16.2C98.1559 16.2 95.2159 15.08 95.1759 10.74L95.2159 4.22H98.6559V9.44C98.6559 11.94 99.4959 13.24 102.316 13.24C104.616 13.24 107.096 12.06 108.156 10.82V4.22ZM125.787 -2.38419e-07H129.207V16H125.787V14.16C124.507 15.5 122.447 16.2 119.907 16.2C116.127 16.2 112.887 14.62 112.887 10.12C112.887 5.62 116.127 4.02 119.907 4.02C122.447 4.02 124.507 4.72 125.787 6.06V-2.38419e-07ZM121.047 13.34C124.107 13.34 125.787 12.44 125.787 10.12C125.787 7.78 124.107 6.88 121.047 6.88C117.987 6.88 116.327 7.78 116.327 10.12C116.327 12.44 117.987 13.34 121.047 13.34Z" fill="#295BF8"/>
</svg>
