<svg width="14" height="16" viewBox="0 0 14 16" fill="none" xmlns="http://www.w3.org/2000/svg">
<path d="M0 13.7987C0 10.7478 3.03988 8.2746 6.78976 8.2746C10.5396 8.2746 13.5795 10.7478 13.5795 13.7987C13.5795 14.9428 10.1846 15.5149 6.78976 15.5149C3.39488 15.5149 0 14.9428 0 13.7987ZM6.78976 7.42733C7.51408 7.42733 8.22213 7.20952 8.82438 6.80146C9.42663 6.3934 9.89603 5.8134 10.1732 5.13482C10.4504 4.45624 10.5229 3.70954 10.3816 2.98916C10.2403 2.26878 9.89152 1.60707 9.37935 1.08771C8.86717 0.568343 8.21463 0.214651 7.50422 0.0713586C6.79382 -0.0719338 6.05747 0.00160908 5.38828 0.282687C4.7191 0.563766 4.14713 1.03975 3.74472 1.65046C3.34231 2.26117 3.12753 2.97917 3.12753 3.71366C3.12752 4.20135 3.22225 4.68426 3.4063 5.13482C3.59034 5.58538 3.8601 5.99478 4.20017 6.33962C4.54024 6.68447 4.94396 6.95801 5.38828 7.14464C5.8326 7.33127 6.30883 7.42733 6.78976 7.42733Z" fill="white"/>
</svg>
